# xmcd
#
# Track frame offsets:
#	150
#	3830
#	21755
#	26475
#	35984
#	55471
#	58434
#	66250
#	88360
#	104393
#	125898
#	145661
#	152325
#	168393
#	177831
#	192727
#	212933
#	232249
#	234789
#	241416
#	261269
#
# Disc length: 3525 seconds
#
# Revision: 0
# Processed by: cddbd v1.5.1PL2 Copyright (c) Steve Scherf et al.
# Submitted via: EasyCDDAExtractor 8.1.2.3
#
DISCID=3a0dc315
DTITLE=Snoop Dogg - Tha Doggfather
DYEAR=1995
DGENRE=Rap
TTITLE0=Intro
TTITLE1=Doggfather
TTITLE2=Ride 4 Me
TTITLE3=Up Jump Tha Boogie
TTITLE4=Freestyle Conversation
TTITLE5=When I Grow Up
TTITLE6=Snoop Bounce
TTITLE7=Gold Rush
TTITLE8=(Tear 'Em Off) Me and My Doggz
TTITLE9=You Thought
TTITLE10=Vapors
TTITLE11=Groopie
TTITLE12=2001
TTITLE13=Sixx Minutes
TTITLE14=(O.J.) Wake Up
TTITLE15=Snoop's Upside Ya Head
TTITLE16=Blueberry
TTITLE17=Traffic Jam
TTITLE18=Doggyland
TTITLE19=Downtown Assassins
TTITLE20=Outro
EXTD=
EXTT0=
EXTT1=
EXTT2=
EXTT3=
EXTT4=
EXTT5=
EXTT6=
EXTT7=
EXTT8=
EXTT9=
EXTT10=
EXTT11=
EXTT12=
EXTT13=
EXTT14=
EXTT15=
EXTT16=
EXTT17=
EXTT18=
EXTT19=
EXTT20=
PLAYORDER=
